<?xml version="1.0" standalone="no"?>
<!DOCTYPE svg PUBLIC "-//W3C//DTD SVG 20010904//EN"
 "http://www.w3.org/TR/2001/REC-SVG-20010904/DTD/svg10.dtd">
<svg version="1.0" xmlns="http://www.w3.org/2000/svg"
 width="1750.000000pt" height="1750.000000pt" viewBox="0 0 1750.000000 1750.000000"
 preserveAspectRatio="xMidYMid meet">
<g transform="translate(0.000000,1750.000000) scale(0.100000,-0.100000)"
fill="#ffffff" stroke="none">
<path d="M8365 16200 c-1366 -77 -2614 -487 -3736 -1227 -435 -286 -764 -557
-1165 -957 -257 -257 -398 -414 -586 -651 -1340 -1694 -1875 -3884 -1472
-6024 270 -1435 966 -2766 1994 -3815 369 -376 720 -672 1125 -948 1118 -763
2337 -1185 3720 -1289 206 -16 784 -16 990 0 1383 104 2602 526 3720 1289 562
383 1101 876 1543 1409 1316 1591 1913 3665 1646 5723 -258 1991 -1318 3801
-2934 5012 -1148 859 -2494 1360 -3945 1468 -198 15 -710 20 -900 10z m1144
-3445 c1103 -1720 2167 -3378 2374 -3702 l205 -322 -136 -213 c-167 -262
-1820 -2839 -2527 -3940 l-518 -808 -1439 0 -1438 0 14 23 c8 12 174 271 368
574 954 1493 1215 1900 1963 3068 444 693 812 1269 817 1281 8 17 -113 212
-822 1320 -750 1170 -1170 1827 -1830 2859 -120 187 -283 442 -363 568 l-146
227 1440 -2 1440 -3 598 -930z"/>
</g>
</svg>
